<?xml version="1.0" encoding="UTF-8"?>
<!DOCTYPE svg PUBLIC "-//W3C//DTD SVG 1.1//EN" "http://www.w3.org/Graphics/SVG/1.1/DTD/svg11.dtd">
<svg xmlns="http://www.w3.org/2000/svg" version="1.1" width="512px" height="512px" style="shape-rendering:geometricPrecision; text-rendering:geometricPrecision; image-rendering:optimizeQuality; fill-rule:evenodd; clip-rule:evenodd" xmlns:xlink="http://www.w3.org/1999/xlink">
<g><path style="opacity:0.982" fill="#747474" d="M 77.5,84.5 C 114.502,84.3333 151.502,84.5 188.5,85C 199.247,86.9547 208.08,92.1214 215,100.5C 226.833,116.333 238.667,132.167 250.5,148C 311.5,148.333 372.5,148.667 433.5,149C 454.027,153.859 465.86,166.692 469,187.5C 469.667,261.167 469.667,334.833 469,408.5C 467.619,423.111 460.786,434.277 448.5,442C 444.323,444.059 439.99,445.726 435.5,447C 315.5,447.667 195.5,447.667 75.5,447C 61.3494,443.176 51.1827,434.676 45,421.5C 43.2625,417.339 42.2625,413.005 42,408.5C 41.3333,313.5 41.3333,218.5 42,123.5C 45.3264,102.677 57.1597,89.6768 77.5,84.5 Z M 85.5,127.5 C 117.168,127.333 148.835,127.5 180.5,128C 192,143.5 203.5,159 215,174.5C 221.678,182.85 230.178,188.35 240.5,191C 302.166,191.5 363.832,191.667 425.5,191.5C 425.5,262.5 425.5,333.5 425.5,404.5C 312.167,404.5 198.833,404.5 85.5,404.5C 85.5,312.167 85.5,219.833 85.5,127.5 Z"/></g>
<g><path style="opacity:0.983" fill="#747474" d="M 324.5,218.5 C 335.413,227.909 345.913,237.909 356,248.5C 356.667,249.167 356.667,249.833 356,250.5C 315.653,291.014 275.153,331.347 234.5,371.5C 207.68,345.18 181.014,318.68 154.5,292C 164.681,281.652 175.014,271.486 185.5,261.5C 201.819,277.319 217.986,293.319 234,309.5C 264.368,279.299 294.535,248.965 324.5,218.5 Z"/></g>
</svg>
